<svg width="48" height="48" viewBox="0 0 48 48" fill="none" xmlns="http://www.w3.org/2000/svg">
                <path d="M9.5 13.5V16.5C9.5 18.7091 11.2909 20.5 13.5 20.5H16.5C18.7091 20.5 20.5 18.7091 20.5 16.5V13.5C20.5 11.2909 18.7091 9.5 16.5 9.5H13.5C11.2909 9.5 9.5 11.2909 9.5 13.5Z" stroke="#7047EB" stroke-width="1.5" stroke-linecap="round" stroke-linejoin="round"></path>
                <path d="M29.5 14H38.5" stroke="#7047EB" stroke-width="1.5" stroke-linecap="round" stroke-linejoin="round"></path>
                <path d="M34 9.5L34 18.5" stroke="#7047EB" stroke-width="1.5" stroke-linecap="round" stroke-linejoin="round"></path>
                <path d="M9.5 31.5V34.5C9.5 36.7091 11.2909 38.5 13.5 38.5H16.5C18.7091 38.5 20.5 36.7091 20.5 34.5V31.5C20.5 29.2909 18.7091 27.5 16.5 27.5H13.5C11.2909 27.5 9.5 29.2909 9.5 31.5Z" stroke="#7047EB" stroke-width="1.5" stroke-linecap="round" stroke-linejoin="round"></path>
                <path d="M27.5 31.5V34.5C27.5 36.7091 29.2909 38.5 31.5 38.5H34.5C36.7091 38.5 38.5 36.7091 38.5 34.5V31.5C38.5 29.2909 36.7091 27.5 34.5 27.5H31.5C29.2909 27.5 27.5 29.2909 27.5 31.5Z" stroke="#7047EB" stroke-width="1.5" stroke-linecap="round" stroke-linejoin="round"></path>
              </svg>