<svg width="48" height="48" viewBox="0 0 48 48" fill="none" xmlns="http://www.w3.org/2000/svg">
  <path d="M30 26.5C34.6944 26.5 38.5 22.6944 38.5 18C38.5 13.3056 34.6944 9.5 30 9.5C25.3056 9.5 21.5 13.3056 21.5 18C21.5 18.6202 21.5664 19.225 21.6926 19.8074L9.5 32V38.5H16L17.5 37V33.5H21L23.5 31V27.5H27L28.1926 26.3074C28.775 26.4336 29.3798 26.5 30 26.5Z" stroke="#7047EB" stroke-width="1.5" stroke-linecap="round" stroke-linejoin="round"></path>
  <path d="M33 16C33 16.5523 32.5523 17 32 17C31.4477 17 31 16.5523 31 16C31 15.4477 31.4477 15 32 15C32.5523 15 33 15.4477 33 16Z" stroke="#7047EB" stroke-width="1.5"></path>
</svg>