<svg width="48" height="48" viewBox="0 0 48 48" fill="none" xmlns="http://www.w3.org/2000/svg">
                <path d="M9.5 11.5C9.5 10.3954 10.3954 9.5 11.5 9.5H16.5C17.6046 9.5 18.5 10.3954 18.5 11.5V24.5C18.5 27.5376 20.9624 30 24 30C27.0376 30 29.5 27.5376 29.5 24.5V11.5C29.5 10.3954 30.3954 9.5 31.5 9.5H36.5C37.6046 9.5 38.5 10.3954 38.5 11.5V24C38.5 32.0081 32.0081 38.5 24 38.5C15.9919 38.5 9.5 32.0081 9.5 24V11.5Z" stroke="#7047EB" stroke-width="1.5" stroke-linecap="round" stroke-linejoin="round"></path>
                <path d="M10 17.5H18" stroke="#7047EB" stroke-width="1.5" stroke-linecap="round" stroke-linejoin="round"></path>
                <path d="M30 17.5H38" stroke="#7047EB" stroke-width="1.5" stroke-linecap="round" stroke-linejoin="round"></path>
              </svg>