<svg width="48" height="48" viewBox="0 0 48 48" fill="none" xmlns="http://www.w3.org/2000/svg">
  <path d="M24 36.5C31 36.5 38.5 33 38.5 24C38.5 15 31 11.5 24 11.5C17 11.5 9.5 15 9.5 24C9.5 26.0596 9.89278 27.8312 10.5825 29.3387C11.0124 30.2784 11.2535 31.3146 11.0631 32.3303L10.5387 35.127C10.2795 36.5095 11.4905 37.7205 12.873 37.4613L19.2878 36.2585C19.792 36.164 20.3089 36.1723 20.8156 36.2526C21.87 36.4199 22.9407 36.5 24 36.5Z" stroke="#7047EB" stroke-width="1.5" stroke-linecap="round" stroke-linejoin="round"></path>
  <path d="M19 24C19 24.5523 18.5523 25 18 25C17.4477 25 17 24.5523 17 24C17 23.4477 17.4477 23 18 23C18.5523 23 19 23.4477 19 24Z" stroke="#7047EB" stroke-width="1.5" stroke-linecap="round" stroke-linejoin="round"></path>
  <path d="M25 24C25 24.5523 24.5523 25 24 25C23.4477 25 23 24.5523 23 24C23 23.4477 23.4477 23 24 23C24.5523 23 25 23.4477 25 24Z" stroke="#7047EB" stroke-width="1.5" stroke-linecap="round" stroke-linejoin="round"></path>
  <path d="M31 24C31 24.5523 30.5523 25 30 25C29.4477 25 29 24.5523 29 24C29 23.4477 29.4477 23 30 23C30.5523 23 31 23.4477 31 24Z" stroke="#7047EB" stroke-width="1.5" stroke-linecap="round" stroke-linejoin="round"></path>
</svg>