<svg width="48" height="48" viewBox="0 0 48 48" fill="none" xmlns="http://www.w3.org/2000/svg">
                <path d="M38.5 24C38.5 32.0081 32.0081 38.5 24 38.5C15.9919 38.5 9.5 32.0081 9.5 24C9.5 15.9919 15.9919 9.5 24 9.5C32.0081 9.5 38.5 15.9919 38.5 24Z" stroke="#7047EB" stroke-width="1.5" stroke-linecap="round" stroke-linejoin="round"></path>
                <path d="M32.5 24C32.5 28.6944 28.6944 32.5 24 32.5C19.3056 32.5 15.5 28.6944 15.5 24C15.5 19.3056 19.3056 15.5 24 15.5C28.6944 15.5 32.5 19.3056 32.5 24Z" stroke="#7047EB" stroke-width="1.5" stroke-linecap="round" stroke-linejoin="round"></path>
                <path d="M26.5 24C26.5 25.3807 25.3807 26.5 24 26.5C22.6193 26.5 21.5 25.3807 21.5 24C21.5 22.6193 22.6193 21.5 24 21.5C25.3807 21.5 26.5 22.6193 26.5 24Z" stroke="#7047EB" stroke-width="1.5" stroke-linecap="round" stroke-linejoin="round"></path>
              </svg>