<svg width="24" height="32" viewBox="0 0 24 32" fill="none">
          <path fill-rule="evenodd" clip-rule="evenodd" d="M7.91809 19.6404L16.5024 23.6092C17.5663 24.1013 18.3174 24.9272 18.723 25.8747C19.7488 28.2739 18.3467 30.7276 16.1458 31.61C13.9444 32.4921 11.5984 31.9244 10.5316 29.4295L6.79575 20.6701C6.50625 19.9911 7.2335 19.3239 7.91809 19.6404Z" fill="#FFC233"></path>
          <path fill-rule="evenodd" clip-rule="evenodd" d="M8.4337 17.0715L17.2949 13.7219C20.2399 12.6086 23.4569 14.715 23.4136 17.7756C23.4129 17.8155 23.4122 17.8555 23.4111 17.8957C23.3475 20.8761 20.22 22.8793 17.3397 21.8249L8.44209 18.5683C7.73232 18.3087 7.72708 17.3386 8.4337 17.0715Z" fill="#FFC233"></path>
          <path fill-rule="evenodd" clip-rule="evenodd" d="M7.93688 15.9113L16.6478 12.2099C19.5424 10.9799 20.277 7.28798 18.01 5.15484C17.9802 5.12674 17.9505 5.09899 17.9204 5.07123C15.6978 3.00815 12.0235 3.73454 10.7581 6.45192L6.84916 14.8474C6.53728 15.5169 7.24215 16.2064 7.93688 15.9113Z" fill="#FFC233"></path>
          <path fill-rule="evenodd" clip-rule="evenodd" d="M5.69539 14.4486L8.86241 5.76471C9.25505 4.68798 9.18233 3.58993 8.7764 2.6425C7.74846 0.244318 4.96464 -0.529802 2.76402 0.353988C0.56375 1.23812 -0.679563 3.24602 0.389281 5.74L4.14964 14.4899C4.44124 15.1679 5.44295 15.1411 5.69539 14.4486Z" fill="#FFC233"></path>
        </svg>