<svg xmlns="http://www.w3.org/2000/svg" xmlns:xlink="http://www.w3.org/1999/xlink" width="16" height="16" viewBox="0 0 16 16">
  <defs>
    <linearGradient id="linear-gradient" x1="0.899" y1="0.029" x2="0.084" y2="0.985" gradientUnits="objectBoundingBox">
      <stop offset="0" stop-color="#0d228b"/>
      <stop offset="1" stop-color="#101a4d"/>
    </linearGradient>
  </defs>
  <g id="RIL_favicon" data-name="RIL favicon" transform="translate(4363 905)">
    <rect id="Rectangle_2547" data-name="Rectangle 2547" width="16" height="16" rx="2" transform="translate(-4363 -905)" fill="url(#linear-gradient)"/>
    <g id="Layer_2" data-name="Layer 2" transform="translate(-4359.314 -902.189)">
      <g id="Layer_1" data-name="Layer 1" transform="translate(-0.01)">
        <rect id="Rectangle_2537" data-name="Rectangle 2537" width="2.594" height="0.865" transform="translate(0)" fill="#fff"/>
        <rect id="Rectangle_2538" data-name="Rectangle 2538" width="2.594" height="0.865" transform="translate(0.865 0) rotate(90)" fill="#fff"/>
        <rect id="Rectangle_2539" data-name="Rectangle 2539" width="2.594" height="0.865" transform="translate(0 9.513)" fill="#fff"/>
        <rect id="Rectangle_2540" data-name="Rectangle 2540" width="2.594" height="0.865" transform="translate(0 10.378) rotate(-90)" fill="#fff"/>
        <rect id="Rectangle_2541" data-name="Rectangle 2541" width="1.73" height="0.865" transform="translate(0 6.919) rotate(-90)" fill="#fff"/>
        <circle id="Ellipse_545" data-name="Ellipse 545" cx="0.425" cy="0.425" r="0.425" transform="translate(0.008 3.459)" fill="#fff"/>
        <rect id="Rectangle_2542" data-name="Rectangle 2542" width="2.594" height="0.865" transform="translate(8.649 10.378) rotate(180)" fill="#fff"/>
        <rect id="Rectangle_2543" data-name="Rectangle 2543" width="2.594" height="0.865" transform="translate(7.784 10.378) rotate(-90)" fill="#fff"/>
        <rect id="Rectangle_2544" data-name="Rectangle 2544" width="2.594" height="0.865" transform="translate(8.649 0.865) rotate(180)" fill="#fff"/>
        <rect id="Rectangle_2545" data-name="Rectangle 2545" width="2.594" height="0.865" transform="translate(8.648 0) rotate(90)" fill="#fff"/>
        <rect id="Rectangle_2546" data-name="Rectangle 2546" width="1.73" height="0.865" transform="translate(8.648 3.459) rotate(90)" fill="#fff"/>
        <circle id="Ellipse_546" data-name="Ellipse 546" cx="0.425" cy="0.425" r="0.425" transform="translate(7.791 6.069)" fill="#fff"/>
      </g>
    </g>
  </g>
</svg>
