<svg width="67" height="67" viewBox="0 0 67 67" fill="none" xmlns="http://www.w3.org/2000/svg">
<path d="M54.6915 49.9538L37.9902 33.2525L54.6915 16.5513L58.3946 20.2693L48.035 30.6289H67.0001V35.8762H48.035L58.3946 46.2358L54.6915 49.9538Z" fill="white"/>
<path d="M35.8762 67.0001H30.6289V48.035L20.2693 58.3946L16.5513 54.6915L33.2525 37.9902L49.9538 54.6915L46.2358 58.3946L35.8762 48.035V67.0001Z" fill="white"/>
<path d="M12.3086 50.4337L8.59051 46.7306L18.9651 36.371H0V31.1238H18.9651L8.59051 20.7492L12.3086 17.0461L28.9949 33.7474L12.3086 50.4337Z" fill="white"/>
<path d="M33.7474 28.9949L17.0461 12.3086L20.7492 8.59051L31.1238 18.9651V0H36.371V18.9651L46.7306 8.59051L50.4337 12.3086L33.7474 28.9949Z" fill="white"/>
</svg>
