<svg xmlns="http://www.w3.org/2000/svg" width="104" height="107" viewBox="0 0 104 107"><defs><mask id="s203b" width="2" height="2" x="-1" y="-1"><path fill="#fff" d="M2 0h100v100H2z"/><path d="M52 100C24.386 100 2 77.614 2 50S24.386 0 52 0s50 22.386 50 50-22.386 50-50 50z"/></mask><filter id="s203a" width="140" height="145" x="-18" y="-20" filterUnits="userSpaceOnUse"><feOffset dy="5" in="SourceGraphic" result="FeOffset1032Out"/><feGaussianBlur in="FeOffset1032Out" result="FeGaussianBlur1033Out" stdDeviation="4 4"/></filter></defs><g><g opacity=".12"><g filter="url(#s203a)"><path fill="none" d="M52 100C24.386 100 2 77.614 2 50S24.386 0 52 0s50 22.386 50 50-22.386 50-50 50z" mask="url(&quot;#s203b&quot;)"/><path fill-opacity=".06" d="M52 100C24.386 100 2 77.614 2 50S24.386 0 52 0s50 22.386 50 50-22.386 50-50 50z"/></g><path fill="#01fe87" d="M52 100C24.386 100 2 77.614 2 50S24.386 0 52 0s50 22.386 50 50-22.386 50-50 50z"/></g><g><g><g><g><path fill="#01fe87" d="M47.553 21.447a4.447 4.447 0 1 1 8.894 0 4.447 4.447 0 0 1-8.894 0z"/></g><g><path fill="#01fe87" d="M53.723 26.758l-.063-.001h-3.32a6.167 6.167 0 0 0-6.049 6.345v.948c0 .475.178 1.008.712 1.008h13.994c.534 0 .711-.533.711-1.008v-.948a6.167 6.167 0 0 0-5.985-6.344z"/></g><g><path fill="#01fe87" d="M33.229 46.202a.89.89 0 0 0 .89-.89 18.323 18.323 0 0 1 6.878-14.349.83.83 0 0 0 .118-1.245.89.89 0 0 0-1.245-.119 20.16 20.16 0 0 0-7.53 15.714c0 .491.397.89.889.89z"/></g><g><path fill="#01fe87" d="M57.87 62.197a18.737 18.737 0 0 1-11.68 0 .89.89 0 0 0-1.127.593.949.949 0 0 0 .593 1.127c2.049.666 4.19 1.006 6.344 1.008a19.982 19.982 0 0 0 6.464-1.068.89.89 0 0 0-.593-1.66z"/></g><g><path fill="#01fe87" d="M62.103 30.315a18.441 18.441 0 0 1 7.78 15.01.89.89 0 0 0 1.778 0 20.279 20.279 0 0 0-8.539-16.485.949.949 0 0 0-1.245.238.89.89 0 0 0 .226 1.237z"/></g><g><path fill="#01fe87" d="M30.264 53.38a4.447 4.447 0 1 1 8.894 0 4.447 4.447 0 0 1-8.894 0z"/></g><g><path fill="#01fe87" d="M36.434 58.7l-.063-.001h-3.32a6.167 6.167 0 0 0-6.048 6.344v.949c0 .474.177 1.008.711 1.008h13.994c.534 0 .712-.534.712-1.008v-.949a6.167 6.167 0 0 0-5.986-6.343z"/></g><g><path fill="#01fe87" d="M64.842 53.38a4.447 4.447 0 1 1 8.894 0 4.447 4.447 0 0 1-8.894 0z"/></g><g><path fill="#01fe87" d="M71.012 58.7l-.063-.001h-3.32a6.167 6.167 0 0 0-6.049 6.344v.949c0 .474.178 1.008.712 1.008h13.994c.533 0 .711-.534.711-1.008v-.949a6.167 6.167 0 0 0-5.985-6.343z"/></g></g></g></g></g></svg>