<svg xmlns="http://www.w3.org/2000/svg" width="104" height="107" viewBox="0 0 104 107"><defs><mask id="shs8b" width="2" height="2" x="-1" y="-1"><path fill="#fff" d="M2 0h100v100H2z"/><path d="M52 100C24.386 100 2 77.614 2 50S24.386 0 52 0s50 22.386 50 50-22.386 50-50 50z"/></mask><filter id="shs8a" width="140" height="145" x="-18" y="-20" filterUnits="userSpaceOnUse"><feOffset dy="5" in="SourceGraphic" result="FeOffset1145Out"/><feGaussianBlur in="FeOffset1145Out" result="FeGaussianBlur1146Out" stdDeviation="4 4"/></filter></defs><g><g opacity=".12"><g filter="url(#shs8a)"><path fill="none" d="M52 100C24.386 100 2 77.614 2 50S24.386 0 52 0s50 22.386 50 50-22.386 50-50 50z" mask="url(&quot;#shs8b&quot;)"/><path fill-opacity=".06" d="M52 100C24.386 100 2 77.614 2 50S24.386 0 52 0s50 22.386 50 50-22.386 50-50 50z"/></g><path fill="#fac700" d="M52 100C24.386 100 2 77.614 2 50S24.386 0 52 0s50 22.386 50 50-22.386 50-50 50z"/></g><g><g><path fill="#fac700" d="M75.532 64.072h-1.563V35.19c0-.808-.656-1.463-1.465-1.463h-5.859c-.809 0-1.465.655-1.465 1.463v28.883h-2.93V44.947c0-.808-.655-1.464-1.464-1.464h-5.86c-.808 0-1.464.656-1.464 1.464v19.125h-2.93V50.314c0-.809-.656-1.464-1.465-1.464h-5.859c-.809 0-1.465.655-1.465 1.464v13.758h-2.93V53.827c0-.809-.655-1.464-1.464-1.464h-5.86c-.809 0-1.464.655-1.464 1.464v10.245h-1.563a1.464 1.464 0 1 0 0 2.928h47.07a1.464 1.464 0 1 0 0-2.928z"/></g><g><path fill="#fac700" d="M28.462 48.45c9.142 0 19.057-3.28 27.916-9.238 6.94-4.666 12.723-10.626 16.316-16.73l1.423 5.306c.175.654 1.022 1.219 1.794 1.035.787-.188 1.245-1.012 1.036-1.793l-2.399-8.945a1.465 1.465 0 0 0-1.794-1.035l-8.952 2.397a1.463 1.463 0 1 0 .758 2.828l5.767-1.545c-3.352 5.82-8.892 11.553-15.584 16.053-8.382 5.636-17.715 8.74-26.28 8.74a1.464 1.464 0 1 0 0 2.927z"/></g></g></g></svg>