<svg id="Layer_2" data-name="Layer 2" xmlns="http://www.w3.org/2000/svg" width="100" height="45.048" viewBox="0 0 100 45.048">
  <g id="Layer_1" data-name="Layer 1">
    <rect id="Rectangle_1683" data-name="Rectangle 1683" width="11.575" height="3.859" transform="translate(0.001)" fill="#fff"/>
    <rect id="Rectangle_1684" data-name="Rectangle 1684" width="11.575" height="3.859" transform="translate(3.859 0) rotate(90)" fill="#fff"/>
    <rect id="Rectangle_1685" data-name="Rectangle 1685" width="11.575" height="3.859" transform="translate(0.001 41.185)" fill="#fff"/>
    <rect id="Rectangle_1686" data-name="Rectangle 1686" width="11.575" height="3.859" transform="translate(0.001 45.044) rotate(-90)" fill="#fff"/>
    <rect id="Rectangle_1687" data-name="Rectangle 1687" width="7.716" height="3.859" transform="translate(0.001 30.114) rotate(-90)" fill="#fff"/>
    <circle id="Ellipse_526" data-name="Ellipse 526" cx="1.896" cy="1.896" r="1.896" transform="translate(0.035 14.978)" fill="#fff"/>
    <rect id="Rectangle_1688" data-name="Rectangle 1688" width="11.575" height="3.859" transform="translate(37.759 45.045) rotate(180)" fill="#fff"/>
    <rect id="Rectangle_1689" data-name="Rectangle 1689" width="11.575" height="3.859" transform="translate(34.581 45.045) rotate(-90)" fill="#fff"/>
    <rect id="Rectangle_1690" data-name="Rectangle 1690" width="11.575" height="3.859" transform="translate(37.759 3.859) rotate(180)" fill="#fff"/>
    <rect id="Rectangle_1691" data-name="Rectangle 1691" width="11.575" height="3.859" transform="translate(38.438 0) rotate(90)" fill="#fff"/>
    <rect id="Rectangle_1692" data-name="Rectangle 1692" width="7.716" height="3.859" transform="translate(38.438 14.93) rotate(90)" fill="#fff"/>
    <circle id="Ellipse_527" data-name="Ellipse 527" cx="1.896" cy="1.896" r="1.896" transform="translate(34.614 26.275)" fill="#fff"/>
    <path id="Path_4109" data-name="Path 4109" d="M365.567,144.222a3.066,3.066,0,0,1-2.241-.791,2.99,2.99,0,0,1-.806-2.241,3.291,3.291,0,0,1,.746-2.305,2.659,2.659,0,0,1,2.061-.815,2.618,2.618,0,0,1,1.959.716,2.719,2.719,0,0,1,.706,1.98v.786h-3.83a1.546,1.546,0,0,0,.408,1.077,1.436,1.436,0,0,0,1.072.386,4.516,4.516,0,0,0,1.015-.111,5.123,5.123,0,0,0,1-.355V143.8a3.735,3.735,0,0,1-.9.316A5.679,5.679,0,0,1,365.567,144.222Zm-.228-5a1.03,1.03,0,0,0-.808.327,1.513,1.513,0,0,0-.335.926h2.272a1.341,1.341,0,0,0-.313-.926A1.059,1.059,0,0,0,365.339,139.22Z" transform="translate(-317.165 -120.843)" fill="#fff"/>
    <path id="Path_4110" data-name="Path 4110" d="M418.139,144.112h-1.62v-3.465a1.667,1.667,0,0,0-.228-.963.83.83,0,0,0-.726-.321,1.1,1.1,0,0,0-.983.453,2.815,2.815,0,0,0-.3,1.506v2.79H412.66v-5.932H413.9l.218.759h.09a1.719,1.719,0,0,1,.746-.65,2.544,2.544,0,0,1,1.081-.22,2.085,2.085,0,0,1,1.571.56,2.229,2.229,0,0,1,.537,1.62Z" transform="translate(-361.032 -120.839)" fill="#fff"/>
    <path id="Path_4111" data-name="Path 4111" d="M466.713,144.051l-.313-.806h-.043a2.4,2.4,0,0,1-.842.714,2.72,2.72,0,0,1-1.128.2,1.822,1.822,0,0,1-1.345-.488,1.88,1.88,0,0,1-.492-1.391,1.567,1.567,0,0,1,.662-1.394,3.817,3.817,0,0,1,1.992-.5l1.03-.032V140.1a.807.807,0,0,0-.923-.9,4.219,4.219,0,0,0-1.674.43l-.536-1.093a4.83,4.83,0,0,1,2.273-.537,2.851,2.851,0,0,1,1.831.515,1.913,1.913,0,0,1,.638,1.582v3.957Zm-.478-2.75-.627.022a1.978,1.978,0,0,0-1.051.258.8.8,0,0,0-.345.711q0,.685.787.685a1.24,1.24,0,0,0,.9-.325,1.133,1.133,0,0,0,.337-.859Z" transform="translate(-404.677 -120.78)" fill="#fff"/>
    <path id="Path_4112" data-name="Path 4112" d="M538.974,142.354a1.635,1.635,0,0,1-.634,1.391,3.133,3.133,0,0,1-1.9.478,5.99,5.99,0,0,1-1.1-.088,4.155,4.155,0,0,1-.855-.258v-1.338a5.627,5.627,0,0,0,1.017.355,4.063,4.063,0,0,0,.994.144c.587,0,.882-.17.882-.515a.428.428,0,0,0-.117-.31,1.7,1.7,0,0,0-.4-.27q-.288-.153-.765-.353a4.873,4.873,0,0,1-1.006-.531,1.515,1.515,0,0,1-.468-.56,1.864,1.864,0,0,1-.146-.773,1.417,1.417,0,0,1,.613-1.224,2.987,2.987,0,0,1,1.739-.433,4.933,4.933,0,0,1,2.086.468l-.488,1.167a8.508,8.508,0,0,0-.835-.313,2.621,2.621,0,0,0-.791-.129q-.717,0-.716.386a.456.456,0,0,0,.23.377,6.329,6.329,0,0,0,1.011.473,4.65,4.65,0,0,1,1.02.525,1.561,1.561,0,0,1,.478.563A1.74,1.74,0,0,1,538.974,142.354Z" transform="translate(-467.584 -120.843)" fill="#fff"/>
    <path id="Path_4113" data-name="Path 4113" d="M578.368,142.415a1.634,1.634,0,0,1-.635,1.391,3.135,3.135,0,0,1-1.9.478,6.006,6.006,0,0,1-1.105-.088,4.142,4.142,0,0,1-.854-.258V142.6a5.613,5.613,0,0,0,1.016.355,4.072,4.072,0,0,0,1,.144q.881,0,.881-.515a.422.422,0,0,0-.117-.31,1.643,1.643,0,0,0-.4-.27q-.286-.153-.764-.353a4.839,4.839,0,0,1-1.006-.531,1.5,1.5,0,0,1-.473-.551,1.843,1.843,0,0,1-.146-.773,1.409,1.409,0,0,1,.613-1.224,2.984,2.984,0,0,1,1.737-.433,4.933,4.933,0,0,1,2.087.468l-.488,1.167a8.632,8.632,0,0,0-.833-.313,2.627,2.627,0,0,0-.791-.129q-.717,0-.717.386a.455.455,0,0,0,.232.377,6.268,6.268,0,0,0,1.011.473,4.6,4.6,0,0,1,1.019.525,1.546,1.546,0,0,1,.478.563A1.723,1.723,0,0,1,578.368,142.415Z" transform="translate(-502.044 -120.904)" fill="#fff"/>
    <path id="Path_4114" data-name="Path 4114" d="M617.269,144.051l-.309-.8h-.043a2.4,2.4,0,0,1-.842.714,2.72,2.72,0,0,1-1.128.2,1.822,1.822,0,0,1-1.345-.488,1.88,1.88,0,0,1-.492-1.391,1.567,1.567,0,0,1,.662-1.394,3.817,3.817,0,0,1,1.992-.5l1.03-.032V140.1a.807.807,0,0,0-.923-.9,4.219,4.219,0,0,0-1.674.43l-.536-1.093a4.829,4.829,0,0,1,2.268-.538,2.851,2.851,0,0,1,1.831.515,1.913,1.913,0,0,1,.638,1.582v3.957Zm-.478-2.75-.627.022a1.979,1.979,0,0,0-1.051.258.8.8,0,0,0-.345.711c0,.457.258.685.786.685a1.241,1.241,0,0,0,.9-.325,1.137,1.137,0,0,0,.338-.859Z" transform="translate(-536.4 -120.78)" fill="#fff"/>
    <path id="Path_4115" data-name="Path 4115" d="M670.059,144.112H668.44v-3.465a1.667,1.667,0,0,0-.228-.963.832.832,0,0,0-.728-.321,1.1,1.1,0,0,0-.983.453,2.815,2.815,0,0,0-.3,1.506v2.79H664.58v-5.932h1.238l.218.759h.09a1.705,1.705,0,0,1,.746-.65,2.539,2.539,0,0,1,1.081-.22,2.084,2.084,0,0,1,1.571.56,2.224,2.224,0,0,1,.536,1.62Z" transform="translate(-581.77 -120.839)" fill="#fff"/>
    <path id="Path_4116" data-name="Path 4116" d="M717.5,144.219q-2.77,0-2.77-3.042a3.244,3.244,0,0,1,.753-2.312,2.827,2.827,0,0,1,2.16-.8,4.121,4.121,0,0,1,1.848.4l-.477,1.253q-.386-.155-.712-.258a2.276,2.276,0,0,0-.658-.1q-1.263,0-1.263,1.794,0,1.741,1.263,1.741a2.862,2.862,0,0,0,.865-.129,3.159,3.159,0,0,0,.8-.386v1.386a2.619,2.619,0,0,1-.793.345,4.493,4.493,0,0,1-1.012.1Z" transform="translate(-625.461 -120.839)" fill="#fff"/>
    <path id="Path_4117" data-name="Path 4117" d="M758.637,144.222a3.062,3.062,0,0,1-2.24-.791,3,3,0,0,1-.808-2.241,3.291,3.291,0,0,1,.746-2.305,2.659,2.659,0,0,1,2.061-.815,2.614,2.614,0,0,1,1.958.716,2.722,2.722,0,0,1,.7,1.98v.786h-3.828a1.555,1.555,0,0,0,.408,1.077,1.443,1.443,0,0,0,1.073.386,4.508,4.508,0,0,0,1.014-.111,5.134,5.134,0,0,0,1-.355V143.8a3.77,3.77,0,0,1-.908.314A5.68,5.68,0,0,1,758.637,144.222Zm-.228-5a1.03,1.03,0,0,0-.808.327,1.512,1.512,0,0,0-.334.926h2.272a1.358,1.358,0,0,0-.313-.926A1.064,1.064,0,0,0,758.409,139.22Z" transform="translate(-661.059 -120.843)" fill="#fff"/>
    <path id="Path_4118" data-name="Path 4118" d="M358.229,228.523H356.61v-3.466a1.666,1.666,0,0,0-.229-.963.83.83,0,0,0-.726-.321,1.1,1.1,0,0,0-.983.453,2.811,2.811,0,0,0-.3,1.5v2.792H352.75v-5.934h1.238l.218.759h.09a1.7,1.7,0,0,1,.746-.65,2.537,2.537,0,0,1,1.079-.22,2.085,2.085,0,0,1,1.571.56,2.223,2.223,0,0,1,.537,1.616Z" transform="translate(-308.617 -194.716)" fill="#fff"/>
    <path id="Path_4119" data-name="Path 4119" d="M411.178,228.523h-1.619v-3.466a1.667,1.667,0,0,0-.228-.963.832.832,0,0,0-.728-.321,1.091,1.091,0,0,0-.981.453,2.827,2.827,0,0,0-.3,1.5v2.792H405.7v-5.934h1.236l.218.759h.09a1.705,1.705,0,0,1,.746-.65,2.539,2.539,0,0,1,1.081-.22,2.085,2.085,0,0,1,1.571.56,2.219,2.219,0,0,1,.536,1.616Z" transform="translate(-354.943 -194.716)" fill="#fff"/>
    <path id="Path_4120" data-name="Path 4120" d="M461.587,225.544a3.192,3.192,0,0,1-.764,2.267,2.77,2.77,0,0,1-2.129.818,2.973,2.973,0,0,1-1.507-.375,2.486,2.486,0,0,1-1-1.074,3.606,3.606,0,0,1-.35-1.636,3.172,3.172,0,0,1,.759-2.262,2.788,2.788,0,0,1,2.134-.806,3,3,0,0,1,1.507.371,2.483,2.483,0,0,1,1,1.068A3.568,3.568,0,0,1,461.587,225.544Zm-4.1,0a2.492,2.492,0,0,0,.29,1.333,1.2,1.2,0,0,0,1.874,0,2.49,2.49,0,0,0,.285-1.336,2.446,2.446,0,0,0-.287-1.321,1.219,1.219,0,0,0-1.874,0A2.452,2.452,0,0,0,457.483,225.544Z" transform="translate(-398.808 -194.717)" fill="#fff"/>
    <path id="Path_4121" data-name="Path 4121" d="M504.032,229.284l-2.262-5.934h1.694l1.146,3.381a6.044,6.044,0,0,1,.24,1.216h.032a5.219,5.219,0,0,1,.238-1.216l1.141-3.381h1.694l-2.262,5.934Z" transform="translate(-439.007 -195.478)" fill="#fff"/>
    <path id="Path_4122" data-name="Path 4122" d="M554.961,228.488l-.313-.806h-.042a2.388,2.388,0,0,1-.841.714,2.721,2.721,0,0,1-1.128.2,1.827,1.827,0,0,1-1.346-.488,1.869,1.869,0,0,1-.491-1.391,1.568,1.568,0,0,1,.661-1.394,3.808,3.808,0,0,1,1.994-.495l1.03-.032v-.258a.807.807,0,0,0-.925-.9,4.224,4.224,0,0,0-1.674.43l-.536-1.093a4.814,4.814,0,0,1,2.272-.536,2.851,2.851,0,0,1,1.831.515,1.909,1.909,0,0,1,.636,1.582v3.954Zm-.477-2.75-.627.022a1.983,1.983,0,0,0-1.051.258.8.8,0,0,0-.345.711c0,.456.258.685.786.685a1.245,1.245,0,0,0,.9-.325,1.137,1.137,0,0,0,.337-.859Z" transform="translate(-481.886 -194.684)" fill="#fff"/>
    <path id="Path_4123" data-name="Path 4123" d="M600.759,219.553a3.519,3.519,0,0,0,1.019-.185v1.206a3.635,3.635,0,0,1-1.486.27,1.825,1.825,0,0,1-1.417-.491,2.125,2.125,0,0,1-.442-1.473v-2.862h-.773v-.684l.891-.542.468-1.252h1.03V214.8h1.663v1.215h-1.66v2.862a.632.632,0,0,0,.194.515A.765.765,0,0,0,600.759,219.553Z" transform="translate(-522.857 -186.922)" fill="#fff"/>
    <path id="Path_4124" data-name="Path 4124" d="M662.587,225.544a3.192,3.192,0,0,1-.764,2.267,2.77,2.77,0,0,1-2.129.818,2.973,2.973,0,0,1-1.507-.375,2.486,2.486,0,0,1-1-1.074,3.605,3.605,0,0,1-.35-1.636,3.172,3.172,0,0,1,.759-2.262,2.788,2.788,0,0,1,2.134-.806,3,3,0,0,1,1.507.371,2.483,2.483,0,0,1,1,1.068A3.57,3.57,0,0,1,662.587,225.544Zm-4.1,0a2.492,2.492,0,0,0,.29,1.333,1.2,1.2,0,0,0,1.874,0,2.49,2.49,0,0,0,.285-1.336,2.446,2.446,0,0,0-.287-1.321,1.219,1.219,0,0,0-1.874,0A2.413,2.413,0,0,0,658.483,225.544Z" transform="translate(-575.02 -194.717)" fill="#fff"/>
    <path id="Path_4125" data-name="Path 4125" d="M714.848,228.523h-1.619v-3.466a1.667,1.667,0,0,0-.228-.963.83.83,0,0,0-.728-.321,1.091,1.091,0,0,0-.981.453,2.827,2.827,0,0,0-.3,1.5v2.792H709.37v-5.934h1.24l.218.759h.09a1.705,1.705,0,0,1,.746-.65,2.544,2.544,0,0,1,1.081-.22,2.085,2.085,0,0,1,1.571.56,2.219,2.219,0,0,1,.536,1.616Z" transform="translate(-620.791 -194.716)" fill="#fff"/>
    <path id="Path_4126" data-name="Path 4126" d="M372.851,317.685l-.313-.808H372.5a2.4,2.4,0,0,1-.841.715,2.721,2.721,0,0,1-1.128.2,1.822,1.822,0,0,1-1.346-.488,1.883,1.883,0,0,1-.491-1.391,1.568,1.568,0,0,1,.661-1.394,3.813,3.813,0,0,1,1.992-.5l1.03-.032v-.258a.807.807,0,0,0-.923-.9,4.224,4.224,0,0,0-1.674.43l-.531-1.1a4.837,4.837,0,0,1,2.272-.536,2.848,2.848,0,0,1,1.831.515,1.934,1.934,0,0,1,.644,1.582v3.955Zm-.478-2.75-.626.021a1.974,1.974,0,0,0-1.051.258.8.8,0,0,0-.344.712q0,.685.786.685a1.245,1.245,0,0,0,.9-.323,1.137,1.137,0,0,0,.337-.86Z" transform="translate(-322.56 -272.746)" fill="#fff"/>
    <path id="Path_4127" data-name="Path 4127" d="M423.475,301.508a1.919,1.919,0,0,1,1.646.82,3.759,3.759,0,0,1,.6,2.249,3.7,3.7,0,0,1-.613,2.277,1.989,1.989,0,0,1-1.674.806,1.967,1.967,0,0,1-1.64-.759h-.112l-.27.653H420.17V300h1.619v1.224c0,.243-.022.635-.064,1.172h.064A1.878,1.878,0,0,1,423.475,301.508Zm-.515,1.3a1.02,1.02,0,0,0-.876.368,2.114,2.114,0,0,0-.287,1.218v.175a2.505,2.505,0,0,0,.283,1.37,1.015,1.015,0,0,0,.9.413.9.9,0,0,0,.793-.458,2.486,2.486,0,0,0,.295-1.336,2.353,2.353,0,0,0-.3-1.314.931.931,0,0,0-.817-.438Z" transform="translate(-367.603 -262.617)" fill="#fff"/>
    <path id="Path_4128" data-name="Path 4128" d="M472.739,316.067a1.634,1.634,0,0,1-.635,1.391,3.135,3.135,0,0,1-1.9.478,5.993,5.993,0,0,1-1.1-.088,4.129,4.129,0,0,1-.855-.258V316.25a5.649,5.649,0,0,0,1.016.355,4.133,4.133,0,0,0,1,.143q.881,0,.881-.515a.428.428,0,0,0-.116-.31,1.684,1.684,0,0,0-.4-.27c-.191-.1-.446-.219-.764-.353a4.778,4.778,0,0,1-1.011-.52,1.505,1.505,0,0,1-.468-.56,1.861,1.861,0,0,1-.146-.773,1.417,1.417,0,0,1,.613-1.224,2.982,2.982,0,0,1,1.739-.433,4.924,4.924,0,0,1,2.085.467l-.488,1.168a8.865,8.865,0,0,0-.833-.314,2.619,2.619,0,0,0-.791-.121q-.716,0-.716.386a.453.453,0,0,0,.231.376,6.151,6.151,0,0,0,1.011.473,4.717,4.717,0,0,1,1.019.526,1.545,1.545,0,0,1,.478.563A1.722,1.722,0,0,1,472.739,316.067Z" transform="translate(-409.634 -272.888)" fill="#fff"/>
    <path id="Path_4129" data-name="Path 4129" d="M333.38,138.94v1.549h-2.24v4.384h-1.62V138.94Z" transform="translate(-288.273 -121.602)" fill="#fff"/>
    <path id="Path_4130" data-name="Path 4130" d="M333.73,307.508V305.96h-2.589v-6.01H329.52v7.558Z" transform="translate(-288.278 -262.573)" fill="#fff"/>
    <path id="Path_4131" data-name="Path 4131" d="M331.14,229.284h-1.62V223.35h1.62Z" transform="translate(-288.247 -195.478)" fill="#fff"/>
    <ellipse id="Ellipse_528" data-name="Ellipse 528" cx="0.884" cy="0.854" rx="0.884" ry="0.854" transform="translate(41.2 25.61)" fill="#fff"/>
    <path id="Path_4132" data-name="Path 4132" d="M638.031,229.284H636.41V223.35h1.622Z" transform="translate(-556.7 -195.478)" fill="#fff"/>
    <ellipse id="Ellipse_529" data-name="Ellipse 529" cx="0.884" cy="0.854" rx="0.884" ry="0.854" transform="translate(79.636 25.61)" fill="#fff"/>
    <path id="Path_4133" data-name="Path 4133" d="M515.679,144.872H514.06V138.94h1.619Z" transform="translate(-449.674 -121.602)" fill="#fff"/>
    <ellipse id="Ellipse_530" data-name="Ellipse 530" cx="0.884" cy="0.854" rx="0.884" ry="0.854" transform="translate(64.311 15.044)" fill="#fff"/>
  </g>
</svg>
