<svg width="100" height="23" viewBox="0 0 100 23" fill="none" xmlns="http://www.w3.org/2000/svg">
<path d="M0 22.335V0.472891H5.93479V3.43755H6.04077C6.72651 2.35839 7.64915 1.51568 8.79621 0.909406C9.9495 0.303135 11.2961 0 12.8359 0C14.519 0 15.9591 0.345574 17.1623 1.03672C18.3592 1.72787 19.2694 2.72215 19.8865 4.02564C20.5037 5.32912 20.8154 6.91148 20.8154 8.76667V22.3411H14.8806V9.5427C14.8806 8.09371 14.5128 6.97211 13.7834 6.17183C13.054 5.37156 12.0317 4.97142 10.7101 4.97142C9.72508 4.97142 8.87725 5.17755 8.16034 5.59588C7.44343 6.0142 6.89483 6.59016 6.50832 7.32375C6.12181 8.0634 5.92856 8.89399 5.92856 9.82158V22.3289H0V22.335Z" fill="white"/>
<path d="M33.9444 22.826C32.0741 22.826 30.4097 22.3774 28.9322 21.4741C27.461 20.5707 26.3014 19.2672 25.4598 17.5515C24.6182 15.8418 24.1943 13.8108 24.1943 11.4585C24.1943 9.10614 24.5995 7.15395 25.4162 5.42002C26.2329 3.68608 27.3799 2.34623 28.8574 1.40651C30.3411 0.466787 32.0492 -0.00610352 33.9818 -0.00610352C35.0353 -0.00610352 36.014 0.133339 36.9305 0.40616C37.8406 0.678982 38.6573 1.07306 39.3804 1.58233C40.1036 2.09159 40.7083 2.70393 41.2008 3.41326H41.3504V0.47285H47.2852V22.335H41.3504V19.4067H41.2008C40.6833 20.1463 40.0475 20.7647 39.3056 21.2679C38.5638 21.7711 37.7346 22.1591 36.8182 22.4259C35.9081 22.6927 34.948 22.826 33.9319 22.826H33.9444ZM35.8395 17.8728C36.9741 17.8728 37.9653 17.6121 38.7944 17.0968C39.6298 16.5754 40.2781 15.8357 40.7394 14.8657C41.2008 13.8957 41.4314 12.7559 41.4314 11.4463C41.4314 10.1368 41.2008 9.03339 40.7457 8.05729C40.2906 7.0812 39.636 6.32336 38.7882 5.78378C37.9404 5.2442 36.9492 4.97744 35.8083 4.97744C34.6675 4.97744 33.7386 5.23814 32.8846 5.75347C32.0305 6.27486 31.3697 7.01451 30.9084 7.98454C30.4471 8.95458 30.2164 10.1004 30.2164 11.4221C30.2164 12.7438 30.4533 13.8896 30.9333 14.8597C31.4071 15.8297 32.0741 16.5754 32.922 17.0907C33.7698 17.6121 34.7423 17.8668 35.8395 17.8668V17.8728Z" fill="white"/>
<path d="M52.4718 22.335V0.472891H58.4066V3.43755H58.5126C59.1983 2.35839 60.121 1.51568 61.268 0.909406C62.4213 0.303135 63.7679 0 65.3077 0C66.9909 0 68.4309 0.345574 69.6341 1.03672C70.831 1.72787 71.7412 2.72215 72.3583 4.02564C72.9755 5.32912 73.2872 6.91148 73.2872 8.76667V22.3411H67.3524V9.5427C67.3524 8.09371 66.9846 6.97211 66.2552 6.17183C65.5259 5.37156 64.5035 4.97142 63.1819 4.97142C62.1969 4.97142 61.3491 5.17755 60.6321 5.59588C59.9152 6.0142 59.3666 6.59016 58.9801 7.32375C58.5936 8.0634 58.4004 8.89399 58.4004 9.82158V22.3289H52.4656L52.4718 22.335Z" fill="white"/>
<path d="M88.2738 22.8261C86.0545 22.8261 84.0533 22.3532 82.2766 21.4135C80.4937 20.4738 79.0973 19.14 78.0874 17.4121C77.0775 15.6843 76.5725 13.6957 76.5725 11.4464C76.5725 9.19716 77.065 7.20253 78.0562 5.4686C79.0474 3.73467 80.4376 2.38875 82.2268 1.4369C84.0159 0.478994 86.0482 0.00610352 88.3236 0.00610352C90.5991 0.00610352 92.6189 0.478994 94.3894 1.43084C96.1598 2.37662 97.5375 3.71648 98.5287 5.44435C99.52 7.17222 100.012 9.17291 100.012 11.4525C100.012 13.7321 99.5075 15.6964 98.51 17.4182C97.5064 19.1461 96.1162 20.4799 94.3332 21.4196C92.5503 22.3593 90.5367 22.8322 88.2925 22.8322L88.2738 22.8261ZM88.2738 18.0123C89.371 18.0123 90.3497 17.7516 91.2225 17.2363C92.0952 16.721 92.7747 15.9631 93.2672 14.9749C93.7597 13.9867 94.0028 12.8105 94.0028 11.4404C94.0028 10.0702 93.7597 8.87584 93.2735 7.88762C92.7872 6.8994 92.1139 6.14156 91.2536 5.61411C90.3933 5.08665 89.4021 4.82595 88.2987 4.82595C87.1953 4.82595 86.2041 5.08665 85.3375 5.61411C84.4773 6.14156 83.7977 6.8994 83.3053 7.89975C82.8128 8.89403 82.5696 10.0763 82.5696 11.4404C82.5696 12.8045 82.8128 13.9806 83.3053 14.9628C83.7977 15.945 84.471 16.7028 85.3375 17.2242C86.2041 17.7456 87.1828 18.0123 88.2738 18.0123Z" fill="white"/>
</svg>
