<svg xmlns="http://www.w3.org/2000/svg" width="104" height="107" viewBox="0 0 104 107"><defs><mask id="9xeeb" width="2" height="2" x="-1" y="-1"><path fill="#fff" d="M2 0h100v100H2z"/><path d="M52 100C24.386 100 2 77.614 2 50S24.386 0 52 0s50 22.386 50 50-22.386 50-50 50z"/></mask><filter id="9xeea" width="140" height="145" x="-18" y="-20" filterUnits="userSpaceOnUse"><feOffset dy="5" in="SourceGraphic" result="FeOffset1103Out"/><feGaussianBlur in="FeOffset1103Out" result="FeGaussianBlur1104Out" stdDeviation="4 4"/></filter></defs><g><g opacity=".12"><g filter="url(#9xeea)"><path fill="none" d="M52 100C24.386 100 2 77.614 2 50S24.386 0 52 0s50 22.386 50 50-22.386 50-50 50z" mask="url(&quot;#9xeeb&quot;)"/><path fill-opacity=".06" d="M52 100C24.386 100 2 77.614 2 50S24.386 0 52 0s50 22.386 50 50-22.386 50-50 50z"/></g><path fill="#fc4f59" d="M52 100C24.386 100 2 77.614 2 50S24.386 0 52 0s50 22.386 50 50-22.386 50-50 50z"/></g><g><g><path fill="#fc4f59" d="M60.352 70.823h-4.177v-4.176h-8.353v4.176h-4.177a2.089 2.089 0 0 0 0 4.177h16.707a2.088 2.088 0 1 0 0-4.177z"/></g><g><path fill="#fc4f59" d="M73.353 33.09h-1.688a26.833 26.833 0 0 1-1.708 4.195h2.875v25.167H31.165V37.285h3.917a5.23 5.23 0 0 1 1.417-2.621 12.456 12.456 0 0 1 1.875-1.573h-7.73c-2 0-3.645 1.656-3.645 3.67v26.216c0 2.013 1.645 3.67 3.645 3.67h42.709c2 0 3.646-1.657 3.646-3.67V36.76c0-2.014-1.646-3.67-3.646-3.67z"/></g><g><path fill="#fc4f59" d="M68.464 25.306c-.2-.2-.5-.316-.758-.305-5.904.11-12.791 3.556-17.164 8.562-4.73.167-8.679 1.593-11.14 4.055a1.043 1.043 0 0 0 .495 1.754l4.445 1.065-.027.03a1.044 1.044 0 0 0 .037 1.436l7.512 7.512c.203.204.47.305.74.305.25 0 .498-.088.697-.268l.029-.027 1.065 4.446a1.043 1.043 0 0 0 1.017.802c.274 0 .539-.106.74-.305 2.463-2.464 3.888-6.41 4.057-11.143 5.012-4.387 8.451-11.266 8.562-17.163a1.049 1.049 0 0 0-.307-.756z"/></g><g><path fill="#fc4f59" d="M41.067 46.681c-1.402 1.401-3.195 7.221-3.54 8.374-.11.368-.008.767.261 1.038a1.045 1.045 0 0 0 1.04.261c1.153-.344 6.97-2.136 8.374-3.54a4.343 4.343 0 0 0 0-6.135 4.343 4.343 0 0 0-6.135.002z"/></g></g></g></svg>