<svg xmlns="http://www.w3.org/2000/svg" width="97" height="97" viewBox="0 0 97 97"><defs><mask id="rirdb" width="2" height="2" x="-1" y="-1"><path fill="#fff" d="M10 0h77v77H10z"/><path d="M10 38.5C10 17.237 27.237 0 48.5 0S87 17.237 87 38.5 69.763 77 48.5 77 10 59.763 10 38.5z"/></mask><filter id="rirda" width="127" height="137" x="-15" y="-25" filterUnits="userSpaceOnUse"><feOffset dy="10" in="SourceGraphic" result="FeOffset1025Out"/><feGaussianBlur in="FeOffset1025Out" result="FeGaussianBlur1026Out" stdDeviation="6 6"/></filter></defs><g><g><g><g filter="url(#rirda)"><path fill="none" d="M10 38.5C10 17.237 27.237 0 48.5 0S87 17.237 87 38.5 69.763 77 48.5 77 10 59.763 10 38.5z" mask="url(&quot;#rirdb&quot;)"/><path fill="#212120" fill-opacity=".06" d="M10 38.5C10 17.237 27.237 0 48.5 0S87 17.237 87 38.5 69.763 77 48.5 77 10 59.763 10 38.5z"/></g><path fill="#01fe87" d="M10 38.5C10 17.237 27.237 0 48.5 0S87 17.237 87 38.5 69.763 77 48.5 77 10 59.763 10 38.5z"/></g><g><path fill="#101a4d" d="M51.219 50.047c3.437-.73 6.243-1.934 8.418-3.613 2.174-1.68 3.756-3.549 4.746-5.606.99-2.057 1.484-4.023 1.484-5.898 0-2.032-.618-3.861-1.855-5.489C62.775 27.814 61.023 27 58.758 27c-1.953 0-3.587.67-4.903 2.012-1.315 1.34-1.972 2.91-1.972 4.707 0 1.432.508 2.773 1.523 4.023 1.016 1.25 2.448 2.018 4.297 2.305-.182 1.484-.807 3.001-1.875 4.55-1.068 1.55-2.604 2.91-4.61 4.083v1.367zm-19.219 0c3.438-.73 6.244-1.934 8.418-3.613 2.174-1.68 3.757-3.549 4.746-5.606.99-2.057 1.484-4.023 1.484-5.898 0-2.032-.618-3.861-1.855-5.489C43.556 27.814 41.805 27 39.539 27c-1.953 0-3.587.67-4.902 2.012-1.315 1.34-1.973 2.91-1.973 4.707 0 1.432.508 2.773 1.524 4.023 1.015 1.25 2.447 2.018 4.296 2.305-.182 1.484-.807 3.001-1.875 4.55-1.067 1.55-2.604 2.91-4.609 4.083v1.367z"/></g></g></g></svg>